# xmcd
#
# Track frame offsets: 
#        150
#        18842
#        38755
#        57230
#        74140
#        91829
#        110974
#        132291
#        155380
#        179916
#        197590
#        216396
#        237938
#        266979
#        287308
#        303245
#
# Disc length: 4414 seconds
#
# Revision: 0
# Processed by: cddbd v1.5.2PL0 Copyright (c) Steve Scherf et al.
# Submitted via: ExactAudioCopy v1.0b3
#
DISCID=f0113c10
DTITLE=Colin James - TwentyFive Live
DYEAR=2013
DGENRE=Blues
TTITLE0=Saviour
TTITLE1=Sweets Gone Sour
TTITLE2=I'm Diggin'
TTITLE3=Fool For You
TTITLE4=Sneakin' Sally Through the Alley
TTITLE5=Shed a Little Light
TTITLE6=Man's Gotta Be a Stone
TTITLE7=Freedom
TTITLE8=Why'd You Lie
TTITLE9=Oh Well
TTITLE10=It Ain't Over Yet
TTITLE11=Bad Habits
TTITLE12=Stones In My Passway-Just Came Back
TTITLE13=Into the Mystic
TTITLE14=Johnny Collman
TTITLE15=Ain't Nothing You Can Do
EXTD=
EXTT0=
EXTT1=
EXTT2=
EXTT3=
EXTT4=
EXTT5=
EXTT6=
EXTT7=
EXTT8=
EXTT9=
EXTT10=
EXTT11=
EXTT12=
EXTT13=
EXTT14=
EXTT15=
PLAYORDER=
